<?xml version="1.0" encoding="UTF-8" standalone="no"?>
<!DOCTYPE svg PUBLIC "-//W3C//DTD SVG 1.1//EN" "http://www.w3.org/Graphics/SVG/1.1/DTD/svg11.dtd">
<svg width="100%" height="100%" viewBox="0 0 2545 744" version="1.1" xmlns="http://www.w3.org/2000/svg" xmlns:xlink="http://www.w3.org/1999/xlink" xml:space="preserve" xmlns:serif="http://www.serif.com/" style="fill-rule:evenodd;clip-rule:evenodd;stroke-linejoin:round;stroke-miterlimit:2;">
    <g transform="matrix(1.06023,0,0,1.06023,-83.331,-428.725)">
        <g transform="matrix(1.15437,0,0,1.13189,-610.441,82.6587)">
            <path d="M596.897,841.925L689.848,841.925L689.848,377.175L736.323,377.175L736.323,841.925L829.273,841.925L829.273,330.621C829.273,317.803 824.718,306.84 815.608,297.731C806.499,288.727 795.535,284.225 782.718,284.225L713.045,284.225C706.637,284.225 701.155,288.78 696.6,297.889C692.098,306.999 689.848,317.962 689.848,330.779L689.848,284.225L596.897,284.225L596.897,841.925Z" style="fill:url(#_Linear1);fill-rule:nonzero;"/>
            <path d="M933.742,539.877L933.742,377.175L980.217,377.175L980.217,493.323L933.742,539.877ZM840.792,841.925L933.742,841.925L933.742,632.827L980.217,586.273L980.217,841.925L1073.17,841.925L1073.17,330.621C1073.17,317.803 1068.61,306.84 1059.5,297.731C1050.39,288.727 1039.43,284.225 1026.61,284.225L887.188,284.225C874.371,284.225 863.407,288.78 854.298,297.889C845.294,306.999 840.792,317.962 840.792,330.779L840.792,841.925Z" style="fill:url(#_Linear2);fill-rule:nonzero;"/>
            <path d="M1131.08,841.925L1270.51,841.925C1283.32,841.925 1294.29,837.424 1303.4,828.42C1312.51,819.31 1317.06,808.347 1317.06,795.53L1317.06,446.927L1177.64,539.877L1177.64,377.175L1224.11,377.175L1224.11,470.125L1317.06,423.571L1317.06,330.621C1317.06,317.803 1312.51,306.84 1303.4,297.731C1294.29,288.727 1283.32,284.225 1270.51,284.225L1131.08,284.225C1118.27,284.225 1107.3,288.78 1098.19,297.889C1089.19,306.999 1084.69,317.962 1084.69,330.779L1084.69,679.223L1224.11,586.273L1224.11,748.975L1177.64,748.975L1177.64,656.025L1084.69,702.58L1084.69,795.53C1084.69,808.347 1089.19,819.31 1098.19,828.42C1107.3,837.424 1118.27,841.925 1131.08,841.925Z" style="fill:url(#_Linear3);fill-rule:nonzero;"/>
            <path d="M1421.53,539.877L1421.53,377.175L1468.01,377.175L1468.01,493.323L1421.53,539.877ZM1328.58,841.925L1421.53,841.925L1421.53,632.827L1468.01,586.273L1468.01,841.925L1560.96,841.925L1560.96,330.621C1560.96,317.803 1556.4,306.84 1547.29,297.731C1538.18,288.727 1527.22,284.225 1514.4,284.225L1374.98,284.225C1362.16,284.225 1351.2,288.78 1342.09,297.889C1333.08,306.999 1328.58,317.962 1328.58,330.779L1328.58,841.925Z" style="fill:url(#_Linear4);fill-rule:nonzero;"/>
            <path d="M1618.87,841.925L1804.85,841.925L1804.85,470.125L1677.03,551.476L1677.03,644.426L1711.9,609.63L1711.9,748.975L1665.43,748.975L1665.43,377.175L1711.9,377.175L1711.9,493.323L1804.85,446.927L1804.85,330.621C1804.85,317.803 1800.3,306.84 1791.19,297.731C1782.08,288.727 1771.11,284.225 1758.3,284.225L1618.87,284.225C1606.06,284.225 1595.09,288.78 1585.98,297.889C1576.98,306.999 1572.48,317.962 1572.48,330.779L1572.48,795.53C1572.48,808.347 1576.98,819.31 1585.98,828.42C1595.09,837.424 1606.06,841.925 1618.87,841.925Z" style="fill:url(#_Linear5);fill-rule:nonzero;"/>
            <path d="M1909.32,539.877L1909.32,377.175L1955.8,377.175L1955.8,493.323L1909.32,539.877ZM1816.37,841.925L1909.32,841.925L1909.32,632.827L1929.18,612.966L1967.39,841.925L2060.35,841.925L1982.33,573.085L2048.75,539.877L2048.75,330.621C2048.75,317.803 2044.19,306.84 2035.08,297.731C2025.97,288.727 2015.01,284.225 2002.19,284.225L1816.37,284.225L1816.37,841.925Z" style="fill:url(#_Linear6);fill-rule:nonzero;"/>
            <path d="M2153.22,539.877L2153.22,377.175L2199.69,377.175L2199.69,493.323L2153.22,539.877ZM2060.26,841.925L2153.22,841.925L2153.22,632.827L2199.69,586.273L2199.69,841.925L2292.64,841.925L2292.64,330.621C2292.64,317.803 2288.09,306.84 2278.98,297.731C2269.87,288.727 2258.9,284.225 2246.09,284.225L2106.66,284.225C2093.84,284.225 2082.88,288.78 2073.77,297.889C2064.77,306.999 2060.26,317.962 2060.26,330.779L2060.26,841.925Z" style="fill:url(#_Linear7);fill-rule:nonzero;"/>
            <path d="M2304.16,841.925L2397.11,841.925L2397.11,377.175L2443.59,377.175L2443.59,841.925L2536.53,841.925L2536.53,377.175L2583.01,377.175L2583.01,841.925L2675.96,841.925L2675.96,330.621C2675.96,317.803 2671.46,306.84 2662.45,297.731C2653.35,288.727 2642.38,284.225 2629.57,284.225L2524.94,284.225C2512.12,284.225 2501.16,288.78 2492.05,297.889C2491.3,298.525 2490.67,299.161 2490.14,299.796L2488.07,297.731C2478.96,288.727 2468,284.225 2455.18,284.225L2350.56,284.225C2337.74,284.225 2326.78,288.78 2317.67,297.889C2308.66,306.999 2304.16,317.962 2304.16,330.779L2304.16,841.925Z" style="fill:url(#_Linear8);fill-rule:nonzero;"/>
        </g>
        <g transform="matrix(1.0209,0,0,0.474584,-30.3783,523.688)">
            <path d="M2457.61,1147.6C2457.61,1133.06 2452.12,1121.26 2445.37,1121.26L118.989,1121.26C112.231,1121.26 106.745,1133.06 106.745,1147.6L106.745,1200.28C106.745,1214.82 112.231,1226.62 118.989,1226.62L2445.37,1226.62C2452.12,1226.62 2457.61,1214.82 2457.61,1200.28L2457.61,1147.6Z" style="fill:url(#_Linear9);"/>
        </g>
    </g>
    <defs>
        <linearGradient id="_Linear1" x1="0" y1="0" x2="1" y2="0" gradientUnits="userSpaceOnUse" gradientTransform="matrix(2090.66,0,0,2090.66,596.897,632.748)"><stop offset="0" style="stop-color:rgb(108,209,239);stop-opacity:1"/><stop offset="0.5" style="stop-color:rgb(186,147,223);stop-opacity:1"/><stop offset="1" style="stop-color:rgb(248,170,221);stop-opacity:1"/></linearGradient>
        <linearGradient id="_Linear2" x1="0" y1="0" x2="1" y2="0" gradientUnits="userSpaceOnUse" gradientTransform="matrix(2090.66,0,0,2090.66,596.897,632.748)"><stop offset="0" style="stop-color:rgb(108,209,239);stop-opacity:1"/><stop offset="0.5" style="stop-color:rgb(186,147,223);stop-opacity:1"/><stop offset="1" style="stop-color:rgb(248,170,221);stop-opacity:1"/></linearGradient>
        <linearGradient id="_Linear3" x1="0" y1="0" x2="1" y2="0" gradientUnits="userSpaceOnUse" gradientTransform="matrix(2090.66,0,0,2090.66,596.897,632.748)"><stop offset="0" style="stop-color:rgb(108,209,239);stop-opacity:1"/><stop offset="0.5" style="stop-color:rgb(186,147,223);stop-opacity:1"/><stop offset="1" style="stop-color:rgb(248,170,221);stop-opacity:1"/></linearGradient>
        <linearGradient id="_Linear4" x1="0" y1="0" x2="1" y2="0" gradientUnits="userSpaceOnUse" gradientTransform="matrix(2090.66,0,0,2090.66,596.897,632.748)"><stop offset="0" style="stop-color:rgb(108,209,239);stop-opacity:1"/><stop offset="0.5" style="stop-color:rgb(186,147,223);stop-opacity:1"/><stop offset="1" style="stop-color:rgb(248,170,221);stop-opacity:1"/></linearGradient>
        <linearGradient id="_Linear5" x1="0" y1="0" x2="1" y2="0" gradientUnits="userSpaceOnUse" gradientTransform="matrix(2090.66,0,0,2090.66,596.897,632.748)"><stop offset="0" style="stop-color:rgb(108,209,239);stop-opacity:1"/><stop offset="0.5" style="stop-color:rgb(186,147,223);stop-opacity:1"/><stop offset="1" style="stop-color:rgb(248,170,221);stop-opacity:1"/></linearGradient>
        <linearGradient id="_Linear6" x1="0" y1="0" x2="1" y2="0" gradientUnits="userSpaceOnUse" gradientTransform="matrix(2090.66,0,0,2090.66,596.897,632.748)"><stop offset="0" style="stop-color:rgb(108,209,239);stop-opacity:1"/><stop offset="0.5" style="stop-color:rgb(186,147,223);stop-opacity:1"/><stop offset="1" style="stop-color:rgb(248,170,221);stop-opacity:1"/></linearGradient>
        <linearGradient id="_Linear7" x1="0" y1="0" x2="1" y2="0" gradientUnits="userSpaceOnUse" gradientTransform="matrix(2090.66,0,0,2090.66,596.897,632.748)"><stop offset="0" style="stop-color:rgb(108,209,239);stop-opacity:1"/><stop offset="0.5" style="stop-color:rgb(186,147,223);stop-opacity:1"/><stop offset="1" style="stop-color:rgb(248,170,221);stop-opacity:1"/></linearGradient>
        <linearGradient id="_Linear8" x1="0" y1="0" x2="1" y2="0" gradientUnits="userSpaceOnUse" gradientTransform="matrix(2090.66,0,0,2090.66,596.897,632.748)"><stop offset="0" style="stop-color:rgb(108,209,239);stop-opacity:1"/><stop offset="0.5" style="stop-color:rgb(186,147,223);stop-opacity:1"/><stop offset="1" style="stop-color:rgb(248,170,221);stop-opacity:1"/></linearGradient>
        <linearGradient id="_Linear9" x1="0" y1="0" x2="1" y2="0" gradientUnits="userSpaceOnUse" gradientTransform="matrix(2350.86,0,0,5057.06,106.745,1173.94)"><stop offset="0" style="stop-color:rgb(108,209,239);stop-opacity:1"/><stop offset="0.5" style="stop-color:rgb(186,147,223);stop-opacity:1"/><stop offset="1" style="stop-color:rgb(248,170,221);stop-opacity:1"/></linearGradient>
    </defs>
</svg>
