<?xml version="1.0" encoding="UTF-8" standalone="no"?>
<!DOCTYPE svg PUBLIC "-//W3C//DTD SVG 1.1//EN" "http://www.w3.org/Graphics/SVG/1.1/DTD/svg11.dtd">
<svg width="100%" height="100%" viewBox="0 0 2547 548" version="1.1" xmlns="http://www.w3.org/2000/svg" xmlns:xlink="http://www.w3.org/1999/xlink" xml:space="preserve" xmlns:serif="http://www.serif.com/" style="fill-rule:evenodd;clip-rule:evenodd;stroke-linejoin:round;stroke-miterlimit:2;">
    <g transform="matrix(0.781028,0,0,0.781028,-61.3867,-315.825)">
        <g transform="matrix(1.14695,0,0,1.13189,-606.013,82.6587)">
            <path d="M643.293,841.925L782.718,841.925C795.535,841.925 806.499,837.424 815.608,828.42C824.718,819.31 829.273,808.347 829.273,795.53L829.273,446.927L689.848,539.877L689.848,377.175L736.323,377.175L736.323,470.125L829.273,423.571L829.273,330.621C829.273,317.803 824.718,306.84 815.608,297.731C806.499,288.727 795.535,284.225 782.718,284.225L643.293,284.225C630.476,284.225 619.513,288.78 610.403,297.889C601.399,306.999 596.897,317.962 596.897,330.779L596.897,679.223L736.323,586.273L736.323,748.975L689.848,748.975L689.848,656.025L596.897,702.58L596.897,795.53C596.897,808.347 601.399,819.31 610.403,828.42C619.513,837.424 630.476,841.925 643.293,841.925Z" style="fill:url(#_Linear1);fill-rule:nonzero;"/>
            <path d="M933.742,539.877L933.742,377.175L980.217,377.175L980.217,493.323L933.742,539.877ZM840.792,841.925L933.742,841.925L933.742,632.827L1073.17,539.877L1073.17,330.621C1073.17,317.803 1068.61,306.84 1059.5,297.731C1050.39,288.727 1039.43,284.225 1026.61,284.225L840.792,284.225L840.792,841.925Z" style="fill:url(#_Linear2);fill-rule:nonzero;"/>
            <path d="M1177.64,539.877L1177.64,377.175L1224.11,377.175L1224.11,493.323L1177.64,539.877ZM1084.69,841.925L1177.64,841.925L1177.64,632.827L1224.11,586.273L1224.11,841.925L1317.06,841.925L1317.06,330.621C1317.06,317.803 1312.51,306.84 1303.4,297.731C1294.29,288.727 1283.32,284.225 1270.51,284.225L1131.08,284.225C1118.27,284.225 1107.3,288.78 1098.19,297.889C1089.19,306.999 1084.69,317.962 1084.69,330.779L1084.69,841.925Z" style="fill:url(#_Linear3);fill-rule:nonzero;"/>
            <path d="M1374.98,841.925L1514.4,841.925C1527.22,841.925 1538.18,837.424 1547.29,828.42C1556.4,819.31 1560.96,808.347 1560.96,795.53L1560.96,632.827L1468.01,679.223L1468.01,748.975L1421.53,748.975L1421.53,377.175L1468.01,377.175L1468.01,493.323L1560.96,446.927L1560.96,330.621C1560.96,317.803 1556.4,306.84 1547.29,297.731C1538.18,288.727 1527.22,284.225 1514.4,284.225L1374.98,284.225C1362.16,284.225 1351.2,288.78 1342.09,297.889C1333.08,306.999 1328.58,317.962 1328.58,330.779L1328.58,795.53C1328.58,808.347 1333.08,819.31 1342.09,828.42C1351.2,837.424 1362.16,841.925 1374.98,841.925Z" style="fill:url(#_Linear4);fill-rule:nonzero;"/>
            <path d="M1572.48,841.925L1804.77,841.925L1804.77,748.975L1665.43,748.975L1665.43,632.827L1804.77,563.075L1804.77,470.125L1665.43,539.877L1665.43,377.175L1804.77,377.175L1804.77,284.225L1572.48,284.225L1572.48,841.925Z" style="fill:url(#_Linear5);fill-rule:nonzero;"/>
            <path d="M1901.89,841.925L1994.84,841.925L1994.84,377.175L2080.37,377.175L2080.37,284.225L1816.37,284.225L1816.37,377.175L1901.89,377.175L1901.89,841.925Z" style="fill:url(#_Linear6);fill-rule:nonzero;"/>
            <path d="M2184.83,539.877L2184.83,377.175L2231.31,377.175L2231.31,493.323L2184.83,539.877ZM2091.88,841.925L2184.83,841.925L2184.83,632.827L2231.31,586.273L2231.31,841.925L2324.26,841.925L2324.26,330.621C2324.26,317.803 2319.7,306.84 2310.6,297.731C2301.49,288.727 2290.52,284.225 2277.7,284.225L2138.28,284.225C2125.46,284.225 2114.5,288.78 2105.39,297.889C2096.39,306.999 2091.88,317.962 2091.88,330.779L2091.88,841.925Z" style="fill:url(#_Linear7);fill-rule:nonzero;"/>
            <path d="M2382.17,841.925L2568.15,841.925L2568.15,470.125L2440.33,551.476L2440.33,644.426L2475.2,609.63L2475.2,748.975L2428.73,748.975L2428.73,377.175L2475.2,377.175L2475.2,493.323L2568.15,446.927L2568.15,330.621C2568.15,317.803 2563.6,306.84 2554.49,297.731C2545.38,288.727 2534.42,284.225 2521.6,284.225L2382.17,284.225C2369.36,284.225 2358.39,288.78 2349.28,297.889C2340.28,306.999 2335.78,317.962 2335.78,330.779L2335.78,795.53C2335.78,808.347 2340.28,819.31 2349.28,828.42C2358.39,837.424 2369.36,841.925 2382.17,841.925Z" style="fill:url(#_Linear8);fill-rule:nonzero;"/>
            <path d="M2672.62,539.877L2672.62,377.175L2719.1,377.175L2719.1,493.323L2672.62,539.877ZM2579.67,841.925L2672.62,841.925L2672.62,632.827L2692.49,612.966L2730.7,841.925L2823.65,841.925L2745.63,573.085L2812.05,539.877L2812.05,330.621C2812.05,317.803 2807.49,306.84 2798.38,297.731C2789.28,288.727 2778.31,284.225 2765.49,284.225L2579.67,284.225L2579.67,841.925Z" style="fill:url(#_Linear9);fill-rule:nonzero;"/>
            <path d="M2916.52,539.877L2916.52,377.175L2962.99,377.175L2962.99,493.323L2916.52,539.877ZM2823.57,841.925L2916.52,841.925L2916.52,632.827L2962.99,586.273L2962.99,841.925L3055.94,841.925L3055.94,330.621C3055.94,317.803 3051.39,306.84 3042.28,297.731C3033.17,288.727 3022.21,284.225 3009.39,284.225L2869.96,284.225C2857.15,284.225 2846.18,288.78 2837.07,297.889C2828.07,306.999 2823.57,317.962 2823.57,330.779L2823.57,841.925Z" style="fill:url(#_Linear10);fill-rule:nonzero;"/>
            <path d="M3067.46,841.925L3160.41,841.925L3160.41,377.175L3206.89,377.175L3206.89,841.925L3299.84,841.925L3299.84,377.175L3346.31,377.175L3346.31,841.925L3439.26,841.925L3439.26,330.621C3439.26,317.803 3434.76,306.84 3425.76,297.731C3416.65,288.727 3405.68,284.225 3392.87,284.225L3288.24,284.225C3275.42,284.225 3264.46,288.78 3255.35,297.889C3254.61,298.525 3253.97,299.161 3253.44,299.796L3251.38,297.731C3242.27,288.727 3231.3,284.225 3218.49,284.225L3113.86,284.225C3101.04,284.225 3090.08,288.78 3080.97,297.889C3071.97,306.999 3067.46,317.962 3067.46,330.779L3067.46,841.925Z" style="fill:url(#_Linear11);fill-rule:nonzero;"/>
        </g>
        <g transform="matrix(1.38674,0,0,0.474584,-69.43,523.688)">
            <path d="M2457.61,1147.6C2457.61,1133.06 2453.57,1121.26 2448.6,1121.26L115.758,1121.26C110.784,1121.26 106.745,1133.06 106.745,1147.6L106.745,1200.28C106.745,1214.82 110.784,1226.62 115.758,1226.62L2448.6,1226.62C2453.57,1226.62 2457.61,1214.82 2457.61,1200.28L2457.61,1147.6Z" style="fill:url(#_Linear12);"/>
        </g>
    </g>
    <defs>
        <linearGradient id="_Linear1" x1="0" y1="0" x2="1" y2="0" gradientUnits="userSpaceOnUse" gradientTransform="matrix(2090.66,0,0,2090.66,596.897,632.748)"><stop offset="0" style="stop-color:rgb(108,209,239);stop-opacity:1"/><stop offset="0.5" style="stop-color:rgb(186,147,223);stop-opacity:1"/><stop offset="1" style="stop-color:rgb(248,170,221);stop-opacity:1"/></linearGradient>
        <linearGradient id="_Linear2" x1="0" y1="0" x2="1" y2="0" gradientUnits="userSpaceOnUse" gradientTransform="matrix(2090.66,0,0,2090.66,596.897,632.748)"><stop offset="0" style="stop-color:rgb(108,209,239);stop-opacity:1"/><stop offset="0.5" style="stop-color:rgb(186,147,223);stop-opacity:1"/><stop offset="1" style="stop-color:rgb(248,170,221);stop-opacity:1"/></linearGradient>
        <linearGradient id="_Linear3" x1="0" y1="0" x2="1" y2="0" gradientUnits="userSpaceOnUse" gradientTransform="matrix(2090.66,0,0,2090.66,596.897,632.748)"><stop offset="0" style="stop-color:rgb(108,209,239);stop-opacity:1"/><stop offset="0.5" style="stop-color:rgb(186,147,223);stop-opacity:1"/><stop offset="1" style="stop-color:rgb(248,170,221);stop-opacity:1"/></linearGradient>
        <linearGradient id="_Linear4" x1="0" y1="0" x2="1" y2="0" gradientUnits="userSpaceOnUse" gradientTransform="matrix(2090.66,0,0,2090.66,596.897,632.748)"><stop offset="0" style="stop-color:rgb(108,209,239);stop-opacity:1"/><stop offset="0.5" style="stop-color:rgb(186,147,223);stop-opacity:1"/><stop offset="1" style="stop-color:rgb(248,170,221);stop-opacity:1"/></linearGradient>
        <linearGradient id="_Linear5" x1="0" y1="0" x2="1" y2="0" gradientUnits="userSpaceOnUse" gradientTransform="matrix(2090.66,0,0,2090.66,596.897,632.748)"><stop offset="0" style="stop-color:rgb(108,209,239);stop-opacity:1"/><stop offset="0.5" style="stop-color:rgb(186,147,223);stop-opacity:1"/><stop offset="1" style="stop-color:rgb(248,170,221);stop-opacity:1"/></linearGradient>
        <linearGradient id="_Linear6" x1="0" y1="0" x2="1" y2="0" gradientUnits="userSpaceOnUse" gradientTransform="matrix(2090.66,0,0,2090.66,596.897,632.748)"><stop offset="0" style="stop-color:rgb(108,209,239);stop-opacity:1"/><stop offset="0.5" style="stop-color:rgb(186,147,223);stop-opacity:1"/><stop offset="1" style="stop-color:rgb(248,170,221);stop-opacity:1"/></linearGradient>
        <linearGradient id="_Linear7" x1="0" y1="0" x2="1" y2="0" gradientUnits="userSpaceOnUse" gradientTransform="matrix(2090.66,0,0,2090.66,596.897,632.748)"><stop offset="0" style="stop-color:rgb(108,209,239);stop-opacity:1"/><stop offset="0.5" style="stop-color:rgb(186,147,223);stop-opacity:1"/><stop offset="1" style="stop-color:rgb(248,170,221);stop-opacity:1"/></linearGradient>
        <linearGradient id="_Linear8" x1="0" y1="0" x2="1" y2="0" gradientUnits="userSpaceOnUse" gradientTransform="matrix(2090.66,0,0,2090.66,596.897,632.748)"><stop offset="0" style="stop-color:rgb(108,209,239);stop-opacity:1"/><stop offset="0.5" style="stop-color:rgb(186,147,223);stop-opacity:1"/><stop offset="1" style="stop-color:rgb(248,170,221);stop-opacity:1"/></linearGradient>
        <linearGradient id="_Linear9" x1="0" y1="0" x2="1" y2="0" gradientUnits="userSpaceOnUse" gradientTransform="matrix(2090.66,0,0,2090.66,596.897,632.748)"><stop offset="0" style="stop-color:rgb(108,209,239);stop-opacity:1"/><stop offset="0.5" style="stop-color:rgb(186,147,223);stop-opacity:1"/><stop offset="1" style="stop-color:rgb(248,170,221);stop-opacity:1"/></linearGradient>
        <linearGradient id="_Linear10" x1="0" y1="0" x2="1" y2="0" gradientUnits="userSpaceOnUse" gradientTransform="matrix(2090.66,0,0,2090.66,596.897,632.748)"><stop offset="0" style="stop-color:rgb(108,209,239);stop-opacity:1"/><stop offset="0.5" style="stop-color:rgb(186,147,223);stop-opacity:1"/><stop offset="1" style="stop-color:rgb(248,170,221);stop-opacity:1"/></linearGradient>
        <linearGradient id="_Linear11" x1="0" y1="0" x2="1" y2="0" gradientUnits="userSpaceOnUse" gradientTransform="matrix(2090.66,0,0,2090.66,596.897,632.748)"><stop offset="0" style="stop-color:rgb(108,209,239);stop-opacity:1"/><stop offset="0.5" style="stop-color:rgb(186,147,223);stop-opacity:1"/><stop offset="1" style="stop-color:rgb(248,170,221);stop-opacity:1"/></linearGradient>
        <linearGradient id="_Linear12" x1="0" y1="0" x2="1" y2="0" gradientUnits="userSpaceOnUse" gradientTransform="matrix(2350.86,0,0,5057.06,106.745,1173.94)"><stop offset="0" style="stop-color:rgb(108,209,239);stop-opacity:1"/><stop offset="0.5" style="stop-color:rgb(186,147,223);stop-opacity:1"/><stop offset="1" style="stop-color:rgb(248,170,221);stop-opacity:1"/></linearGradient>
    </defs>
</svg>
