<?xml version="1.0" encoding="UTF-8" standalone="no"?>
<!DOCTYPE svg PUBLIC "-//W3C//DTD SVG 1.1//EN" "http://www.w3.org/Graphics/SVG/1.1/DTD/svg11.dtd">
<svg width="100%" height="100%" viewBox="0 0 1000 1000" version="1.1" xmlns="http://www.w3.org/2000/svg" xmlns:xlink="http://www.w3.org/1999/xlink" xml:space="preserve" xmlns:serif="http://www.serif.com/" style="fill-rule:evenodd;clip-rule:evenodd;stroke-linejoin:round;stroke-miterlimit:2;">
    <g transform="matrix(-0.442546,-0.944988,-0.944988,0.442546,1208.37,989.944)">
        <path d="M713.118,56.493C614.08,56.851 524.51,97.237 459.879,162.411C395.462,227.37 355.862,316.939 356.331,415.65C357.041,513.827 397.258,602.716 462.329,666.438C526.866,729.638 615.752,767.843 713.118,766.508C809.359,764.886 895.879,724.548 957.838,660.37C1018.91,597.105 1055.75,510.517 1054.01,415.65C1054.01,404.845 1062.78,396.074 1073.59,396.074C1084.39,396.074 1093.16,404.845 1093.16,415.65C1091.25,519.893 1047.69,613.597 978.178,680.709C909.581,746.933 815.983,787.462 713.118,785.729C611.518,784.336 520.174,741.884 454.227,674.541C388.819,607.749 348.238,516.424 348.967,415.65C349.444,315.277 390.524,224.61 456.576,159.108C522.413,93.82 613.073,53.507 713.118,53.869C713.842,53.869 714.43,54.457 714.43,55.181C714.43,55.905 713.842,56.493 713.118,56.493Z" style="fill:rgb(108,209,239);"/>
    </g>
    <g transform="matrix(-0.442546,-0.944988,-0.944988,0.442546,1208.37,989.944)">
        <path d="M713.118,55.181C613.732,55.576 523.87,96.141 459.023,161.555C394.398,226.746 354.646,316.604 355.115,415.65C355.741,514.197 396.109,603.378 461.294,667.473C526.047,731.143 615.227,769.906 713.118,768.878C810.176,767.662 897.601,727.343 960.379,662.911C1022.5,599.152 1060.27,511.692 1058.98,415.65C1058.98,407.587 1065.52,401.041 1073.59,401.041C1081.65,401.041 1088.19,407.587 1088.19,415.65C1086.81,518.705 1044.05,611.511 975.636,678.168C907.899,744.166 815.155,784.637 713.118,783.359C612.051,782.297 520.997,740.36 455.261,673.506C389.959,607.092 349.545,516.054 350.183,415.65C350.657,315.612 391.589,225.236 457.432,159.964C523.051,94.914 613.421,54.785 713.118,55.181Z" style="fill:rgb(248,170,221);"/>
    </g>
    <g id="Rocket" transform="matrix(7.11111,-8.27081,-8.27081,-7.11111,1310.37,1020.31)">
        <path d="M14.473,106.854C13.057,107.073 11.856,105.859 12.072,104.43C12.207,103.539 12.928,102.81 13.811,102.674C15.226,102.455 16.428,103.669 16.211,105.099C16.076,105.989 15.355,106.718 14.473,106.854ZM20.867,97.169C21.054,98.219 21.761,104.012 16.26,110.757C15.685,111.463 15.045,112.069 14.381,112.592C14.321,112.639 14.293,112.712 14.308,112.787C14.504,113.776 14.746,115.764 13.843,116.909C11.982,119.271 9.269,119.864 8.403,119.997C8.261,120.019 8.14,119.899 8.154,119.755C8.154,119.755 8.524,116.137 8.6,115.361C8.607,115.288 8.545,115.226 8.472,115.237C8.046,115.295 7.397,115.374 7.218,115.331C6.945,115.267 4.908,113.558 4.8,113.296C4.728,113.123 4.708,112.475 4.703,112.057C4.702,111.99 4.638,111.942 4.574,111.959L0.239,113.114C0.119,113.146 0.002,113.057 0,112.932C-0.007,112.093 0.131,109.243 2.188,106.989C3.196,105.884 5.255,105.848 6.224,105.898C6.3,105.902 6.367,105.863 6.405,105.796C6.86,104.979 7.424,104.178 8.121,103.449C13.893,97.421 19.615,97.021 20.663,97C20.765,96.998 20.85,97.068 20.867,97.169ZM6.717,115.949C7.05,116.028 6.911,116.976 6.288,117.696C5.914,118.128 5.369,118.47 4.784,118.621C3.483,118.957 2.282,118.756 2.282,118.756C2.282,118.756 1.902,117.581 2.031,116.232C2.089,115.624 2.34,115.028 2.705,114.588C3.313,113.855 4.22,113.572 4.348,113.891C4.558,114.417 3.931,114.327 3.678,115.554C3.483,116.503 3.805,116.932 3.799,116.948C3.811,116.942 4.278,117.199 5.177,116.858C6.338,116.418 6.171,115.82 6.717,115.949Z" style="fill:url(#_Linear1);"/>
    </g>
    <defs>
        <linearGradient id="_Linear1" x1="0" y1="0" x2="1" y2="0" gradientUnits="userSpaceOnUse" gradientTransform="matrix(17.0239,-20.3957,-20.3957,-17.0239,3.53,117.755)"><stop offset="0" style="stop-color:black;stop-opacity:1"/><stop offset="0.07" style="stop-color:rgb(10,10,10);stop-opacity:1"/><stop offset="1" style="stop-color:rgb(77,77,77);stop-opacity:1"/></linearGradient>
    </defs>
</svg>
